<?xml version="1.0" standalone="no"?>
<!DOCTYPE svg PUBLIC "-//W3C//DTD SVG 20010904//EN"
 "http://www.w3.org/TR/2001/REC-SVG-20010904/DTD/svg10.dtd">
<svg version="1.0" xmlns="http://www.w3.org/2000/svg"
 width="444.000000pt" height="113.000000pt" viewBox="0 0 444.000000 113.000000"
 preserveAspectRatio="xMidYMid meet">

<g transform="translate(0.000000,113.000000) scale(0.100000,-0.100000)"
fill="#000000" stroke="none">
<path d="M592 1115 c-101 -23 -202 -77 -272 -146 -68 -66 -91 -109 -83 -152 8
-41 56 -77 105 -77 35 0 46 6 96 59 68 70 139 108 225 120 100 14 195 -10 278
-71 83 -62 201 31 154 122 -20 39 -109 97 -197 127 -86 30 -220 38 -306 18z"/>
<path d="M1589 724 c-101 -31 -201 -127 -236 -229 -11 -32 -18 -80 -18 -130 0
-71 4 -89 33 -147 39 -79 110 -149 190 -186 48 -22 72 -26 147 -27 82 0 96 3
156 32 83 41 143 101 180 178 93 195 -2 428 -206 504 -66 25 -176 27 -246 5z
m217 -167 c184 -96 126 -378 -80 -395 -72 -6 -121 12 -170 62 -81 81 -87 199
-14 282 69 78 173 99 264 51z"/>
<path d="M2113 718 c-11 -13 -24 -33 -27 -45 -9 -30 244 -595 285 -638 26 -26
36 -30 87 -30 38 0 66 6 83 18 19 13 62 95 163 319 147 325 154 347 103 383
-29 20 -80 19 -105 -2 -12 -10 -67 -121 -122 -248 -56 -126 -105 -234 -110
-239 -13 -13 -31 22 -131 249 -51 116 -101 220 -112 233 -14 15 -32 22 -57 22
-25 0 -43 -7 -57 -22z"/>
<path d="M3093 722 c-101 -36 -171 -100 -220 -202 -23 -47 -27 -68 -28 -145 0
-81 3 -97 32 -157 39 -82 99 -142 183 -182 58 -28 75 -31 155 -31 103 1 170
25 240 86 105 93 122 168 47 208 -36 19 -66 6 -111 -48 -23 -27 -61 -59 -84
-70 -79 -38 -189 -20 -244 41 l-23 24 243 78 c304 97 317 108 261 217 -33 66
-100 131 -171 165 -75 37 -201 44 -280 16z m184 -147 c43 -13 94 -49 82 -59
-8 -7 -354 -115 -357 -111 -9 9 39 93 70 123 32 30 98 60 139 61 8 1 38 -6 66
-14z"/>
<path d="M3867 717 c-134 -52 -226 -178 -235 -318 -11 -180 91 -328 262 -381
161 -49 352 25 426 165 21 39 22 48 11 75 -15 35 -59 57 -96 48 -13 -3 -35
-22 -49 -42 -59 -88 -167 -125 -258 -91 -36 14 -98 59 -98 72 0 2 93 33 208
69 276 89 290 94 304 119 15 29 13 69 -7 108 -29 55 -107 130 -170 162 -51 26
-73 31 -150 34 -75 3 -100 -1 -148 -20z m180 -137 c27 -6 62 -21 78 -35 36
-28 53 -19 -170 -91 -177 -57 -184 -56 -143 18 33 60 103 106 180 117 4 1 29
-4 55 -9z"/>
<path d="M185 681 c-11 -5 -32 -21 -46 -35 -69 -69 -31 -183 67 -202 68 -13
144 51 144 121 0 34 -30 89 -57 103 -29 16 -86 22 -108 13z"/>
<path d="M549 631 c-21 -22 -29 -39 -29 -66 0 -27 8 -44 29 -66 l29 -29 241 0
c159 0 241 -4 241 -10 0 -25 -52 -110 -91 -147 -153 -149 -379 -142 -526 14
-45 48 -58 56 -97 60 -40 5 -48 2 -76 -25 -59 -60 -35 -132 78 -225 114 -95
214 -130 367 -130 88 0 123 4 175 22 220 77 369 266 387 493 6 76 5 77 -25
107 l-30 31 -322 0 -322 0 -29 -29z"/>
</g>
</svg>
