<?xml version="1.0" standalone="no"?>
<!DOCTYPE svg PUBLIC "-//W3C//DTD SVG 20010904//EN"
 "http://www.w3.org/TR/2001/REC-SVG-20010904/DTD/svg10.dtd">
<svg version="1.0" xmlns="http://www.w3.org/2000/svg"
 width="512.000000pt" height="512.000000pt" viewBox="0 0 512.000000 512.000000"
 preserveAspectRatio="xMidYMid meet">

<g transform="translate(0.000000,512.000000) scale(0.100000,-0.100000)"
fill="#000000" stroke="none">
<path d="M2524 4130 c-12 -4 -31 -21 -43 -36 -20 -26 -21 -36 -21 -281 l0
-254 24 -24 c46 -46 109 -45 152 2 l24 26 0 253 0 254 -27 29 c-30 32 -76 45
-109 31z"/>
<path d="M1447 3672 c-21 -22 -27 -38 -27 -72 0 -43 2 -46 172 -217 112 -112
183 -177 205 -184 71 -23 147 53 124 124 -7 22 -72 93 -184 205 -173 172 -173
172 -218 172 -37 0 -50 -5 -72 -28z"/>
<path d="M3383 3528 c-111 -110 -177 -184 -183 -204 -25 -74 50 -149 124 -124
20 6 94 72 204 183 167 168 172 175 172 214 0 30 -7 50 -26 72 -22 26 -33 31
-72 31 l-46 0 -173 -172z"/>
<path d="M2455 3279 c-230 -35 -439 -186 -538 -389 -62 -127 -80 -201 -80
-330 0 -129 18 -203 80 -330 39 -79 61 -109 132 -180 145 -145 311 -214 511
-213 202 0 367 69 510 213 144 144 213 309 213 510 0 130 -18 204 -80 330 -38
79 -61 110 -132 181 -71 71 -102 94 -181 132 -52 26 -121 53 -153 61 -77 20
-208 27 -282 15z m229 -214 c102 -27 167 -64 241 -139 164 -166 201 -390 98
-604 -36 -75 -150 -189 -225 -225 -214 -103 -438 -66 -604 98 -102 101 -154
224 -154 365 0 333 325 588 644 505z"/>
<path d="M1018 2631 c-28 -25 -33 -36 -32 -72 1 -35 8 -48 33 -71 l31 -28 246
0 c192 0 251 3 273 14 28 15 51 53 51 87 0 28 -27 77 -49 89 -12 6 -118 10
-270 10 l-251 0 -32 -29z"/>
<path d="M3537 2640 c-32 -26 -44 -79 -27 -121 24 -58 30 -59 307 -59 l253 0
31 28 c26 24 32 36 32 72 0 36 -6 48 -32 72 l-31 28 -254 0 c-240 0 -255 -1
-279 -20z"/>
<path d="M1785 1916 c-16 -8 -105 -90 -197 -183 -167 -169 -168 -170 -168
-214 0 -62 37 -99 100 -99 43 0 46 2 217 172 111 110 177 184 183 204 16 47
-8 100 -54 119 -42 18 -43 18 -81 1z"/>
<path d="M3252 1915 c-44 -19 -67 -73 -52 -119 6 -20 72 -94 183 -204 170
-169 174 -172 216 -172 60 0 101 41 101 101 0 42 -4 46 -167 212 -146 147
-208 198 -240 197 -4 -1 -23 -7 -41 -15z"/>
<path d="M2514 1610 c-51 -20 -54 -36 -54 -307 l0 -253 28 -31 c24 -26 36 -32
72 -32 36 0 48 6 72 32 l28 31 0 251 c0 152 -4 258 -10 270 -22 39 -88 59
-136 39z"/>
</g>
</svg>
